<?xml version="1.0" encoding="UTF-8" standalone="no"?>
<!-- Created with Inkscape (http://www.inkscape.org/) -->

<svg
   xmlns:dc="http://purl.org/dc/elements/1.1/"
   xmlns:cc="http://creativecommons.org/ns#"
   xmlns:rdf="http://www.w3.org/1999/02/22-rdf-syntax-ns#"
   xmlns:svg="http://www.w3.org/2000/svg"
   xmlns="http://www.w3.org/2000/svg"
   xmlns:sodipodi="http://sodipodi.sourceforge.net/DTD/sodipodi-0.dtd"
   xmlns:inkscape="http://www.inkscape.org/namespaces/inkscape"
   width="130.66911mm"
   height="27.154001mm"
   viewBox="0 0 463.00079 96.214961"
   id="svg4896"
   version="1.1"
   inkscape:version="0.91 r13725"
   sodipodi:docname="chalmers_text.svg">
  <defs
     id="defs4898" />
  <sodipodi:namedview
     id="base"
     pagecolor="#ffffff"
     bordercolor="#666666"
     borderopacity="1.0"
     inkscape:pageopacity="0.0"
     inkscape:pageshadow="2"
     inkscape:zoom="2"
     inkscape:cx="232.8819"
     inkscape:cy="57.097049"
     inkscape:document-units="px"
     inkscape:current-layer="layer1"
     showgrid="false"
     fit-margin-top="1"
     fit-margin-left="1"
     fit-margin-right="1"
     fit-margin-bottom="1"
     inkscape:window-width="2560"
     inkscape:window-height="1392"
     inkscape:window-x="1200"
     inkscape:window-y="0"
     inkscape:window-maximized="1" />
  <metadata
     id="metadata4901">
    <rdf:RDF>
      <cc:Work
         rdf:about="">
        <dc:format>image/svg+xml</dc:format>
        <dc:type
           rdf:resource="http://purl.org/dc/dcmitype/StillImage" />
        <dc:title></dc:title>
      </cc:Work>
    </rdf:RDF>
  </metadata>
  <g
     inkscape:label="Layer 1"
     inkscape:groupmode="layer"
     id="layer1"
     transform="translate(-115.20631,-440.03861)">
    <g
       id="g4883"
       transform="translate(-141.10821,353.3772)">
      <g
         transform="matrix(3.3425528,0,0,3.3425528,247.31323,-304.38882)"
         id="g4501">
        <path
           style="fill:#231f20"
           inkscape:connector-curvature="0"
           id="path88"
           d="m 20.612,127.758 c -0.256,0.873 -0.573,1.889 -1.829,3.041 -1.131,1.033 -3,2.211 -6.581,2.211 -4.989,0 -8.449,-2.611 -8.449,-7.52 0,-5.291 4.216,-7.438 8.65,-7.438 1.608,0 5.842,0.377 7.705,3.742 l -3.511,1.112 c -0.377,-0.599 -1.499,-2.146 -4.22,-2.146 -3.182,0 -4.967,2.084 -4.967,4.771 0,3.063 2.429,4.69 5.091,4.69 3.042,0 3.957,-1.592 4.416,-2.444 l 3.695,-0.019" />
        <path
           style="fill:#231f20"
           inkscape:connector-curvature="0"
           id="path90"
           d="m 22.151,118.491 3.522,0 0,5.41 8.313,0 0,-5.41 3.521,0 0,14.041 -3.521,0 0,-6.027 -8.313,0 0,6.027 -3.522,0 0,-14.041" />
        <path
           style="fill:#231f20"
           inkscape:connector-curvature="0"
           id="path92"
           d="m 48.188,122.805 c -0.103,-0.178 -0.181,-0.376 -0.241,-0.555 -0.06,-0.179 -0.098,-0.358 -0.117,-0.559 -0.061,0.178 -0.102,0.34 -0.14,0.497 -0.083,0.181 -0.141,0.357 -0.221,0.537 l -1.959,4.249 4.531,0 -1.853,-4.169 0,0 z m -2.228,-4.314 3.798,0 6.781,14.041 -3.939,0 -1.391,-3.068 -6.837,0 -1.355,3.068 -3.838,0 6.781,-14.041" />
        <path
           style="fill:#231f20"
           inkscape:connector-curvature="0"
           id="path94"
           d="m 58.348,118.491 3.52,0 0,11.453 7.092,0 0,2.588 -10.612,0 0,-14.041" />
        <path
           style="fill:#231f20"
           inkscape:connector-curvature="0"
           id="path96"
           d="m 71.077,118.491 5.071,0 3.657,8.592 c 0.377,0.912 0.519,1.291 0.717,2.088 0.139,-0.597 0.257,-0.957 0.654,-1.928 l 3.659,-8.752 5.033,0 0,14.041 -3.323,0 0,-9.824 c 0,-0.42 0.063,-0.776 0.142,-1.313 -0.142,0.415 -0.197,0.579 -0.397,1.075 l -4.194,10.063 -3.206,0 -4.194,-9.865 c -0.221,-0.535 -0.259,-0.693 -0.417,-1.272 0.059,0.599 0.079,0.716 0.121,1.255 l 0,9.883 -3.322,0 0,-14.043" />
        <path
           style="fill:#231f20"
           inkscape:connector-curvature="0"
           id="path116"
           d="m 112.768,124.405 5.605,0 c 0.755,0 2.107,-0.098 2.107,-1.668 0,-0.279 -0.036,-0.758 -0.278,-1.096 -0.256,-0.338 -0.596,-0.674 -1.984,-0.674 l -5.45,0 0,3.438 z m -3.519,-5.905 9.663,0 c 1.594,0 3.038,0.14 4.214,1.49 0.718,0.834 0.918,1.889 0.918,2.705 0,1.074 -0.359,2.346 -1.356,3.101 -0.751,0.579 -1.729,0.777 -2.284,0.876 l 4.256,5.864 -4.041,0 -3.854,-5.646 -3.995,0 0,5.646 -3.52,0 0,-14.036" />
        <path
           style="fill:#231f20"
           inkscape:connector-curvature="0"
           id="path112"
           d="m 128.48,128.248 c 0.827,1.679 2.842,2.16 4.752,2.129 0.855,-0.018 3.536,-0.205 3.507,-1.913 -0.021,-1.015 -0.999,-1.234 -1.752,-1.361 -0.582,-0.109 -3.474,-0.496 -4.134,-0.605 -1.293,-0.215 -4.564,-0.773 -4.619,-3.955 -0.012,-0.697 0.172,-1.414 0.519,-1.997 1.141,-1.909 3.719,-2.454 5.946,-2.491 2.047,-0.038 3.622,0.234 5.089,1.004 1.446,0.75 2.078,1.775 2.362,2.227 l -3.324,0.895 c -0.12,-0.218 -0.412,-0.731 -1.254,-1.132 -0.939,-0.443 -2.153,-0.499 -2.829,-0.489 -1.551,0.023 -3.137,0.353 -3.113,1.684 0.016,0.916 0.833,1.141 1.892,1.361 0.579,0.109 3.45,0.536 4.11,0.663 1.632,0.271 4.407,0.817 4.465,3.901 0.075,4.512 -4.984,4.769 -7.029,4.797 -2.309,0.029 -5.901,-0.297 -7.774,-3.824 l 3.186,-0.894" />
        <path
           style="fill:#231f20"
           inkscape:connector-curvature="0"
           id="path114"
           d="m 93.123,118.491 13.081,0 0,2.527 -9.561,0 0,3.16 8.425,0 0,2.488 -8.425,0 0,3.359 9.959,0 0,2.506 -13.479,0 0,-14.04" />
      </g>
      <text
         sodipodi:linespacing="125%"
         id="text4814"
         y="178.78181"
         x="267.67786"
         style="font-style:normal;font-variant:normal;font-weight:bold;font-stretch:normal;font-size:28.31890678px;line-height:125%;font-family:'Berthold Akzidenz Grotesk';-inkscape-font-specification:'Berthold Akzidenz Grotesk Bold';letter-spacing:0px;word-spacing:0px;fill:#000000;fill-opacity:1;stroke:none;stroke-width:1px;stroke-linecap:butt;stroke-linejoin:miter;stroke-opacity:1"
         xml:space="preserve"><tspan
           style="font-size:26.25px;letter-spacing:1.79999995px"
           dx="0"
           y="178.78181"
           x="267.67786"
           id="tspan4816"
           sodipodi:role="line">UNIVERSITY OF TECHNOLOGY</tspan></text>
    </g>
  </g>
</svg>
