<?xml version="1.0" encoding="UTF-8" standalone="no"?>
<!-- Created with Inkscape (http://www.inkscape.org/) -->

<svg
   xmlns:dc="http://purl.org/dc/elements/1.1/"
   xmlns:cc="http://creativecommons.org/ns#"
   xmlns:rdf="http://www.w3.org/1999/02/22-rdf-syntax-ns#"
   xmlns:svg="http://www.w3.org/2000/svg"
   xmlns="http://www.w3.org/2000/svg"
   xmlns:sodipodi="http://sodipodi.sourceforge.net/DTD/sodipodi-0.dtd"
   xmlns:inkscape="http://www.inkscape.org/namespaces/inkscape"
   width="130.66911mm"
   height="27.154001mm"
   viewBox="0 0 463.00079 96.214961"
   id="svg4896"
   version="1.1"
   inkscape:version="0.91 r13725"
   sodipodi:docname="chalmers_text_paths_only.svg">
  <defs
     id="defs4898" />
  <sodipodi:namedview
     id="base"
     pagecolor="#ffffff"
     bordercolor="#666666"
     borderopacity="1.0"
     inkscape:pageopacity="0.0"
     inkscape:pageshadow="2"
     inkscape:zoom="2.4707031"
     inkscape:cx="117.61624"
     inkscape:cy="-19.862455"
     inkscape:document-units="px"
     inkscape:current-layer="g4883"
     showgrid="false"
     fit-margin-top="1"
     fit-margin-left="1"
     fit-margin-right="1"
     fit-margin-bottom="1"
     inkscape:window-width="2560"
     inkscape:window-height="1392"
     inkscape:window-x="1200"
     inkscape:window-y="0"
     inkscape:window-maximized="1" />
  <metadata
     id="metadata4901">
    <rdf:RDF>
      <cc:Work
         rdf:about="">
        <dc:format>image/svg+xml</dc:format>
        <dc:type
           rdf:resource="http://purl.org/dc/dcmitype/StillImage" />
        <dc:title></dc:title>
      </cc:Work>
    </rdf:RDF>
  </metadata>
  <g
     inkscape:label="Layer 1"
     inkscape:groupmode="layer"
     id="layer1"
     transform="translate(-115.20631,-440.03861)">
    <g
       id="g4883"
       transform="translate(-141.10821,353.3772)">
      <g
         transform="matrix(3.3425528,0,0,3.3425528,247.31323,-304.38882)"
         id="g4501"
         style="fill:#000000;fill-opacity:1">
        <path
           style="fill:#000000;fill-opacity:1"
           inkscape:connector-curvature="0"
           id="path88"
           d="m 20.612,127.758 c -0.256,0.873 -0.573,1.889 -1.829,3.041 -1.131,1.033 -3,2.211 -6.581,2.211 -4.989,0 -8.449,-2.611 -8.449,-7.52 0,-5.291 4.216,-7.438 8.65,-7.438 1.608,0 5.842,0.377 7.705,3.742 l -3.511,1.112 c -0.377,-0.599 -1.499,-2.146 -4.22,-2.146 -3.182,0 -4.967,2.084 -4.967,4.771 0,3.063 2.429,4.69 5.091,4.69 3.042,0 3.957,-1.592 4.416,-2.444 l 3.695,-0.019" />
        <path
           style="fill:#000000;fill-opacity:1"
           inkscape:connector-curvature="0"
           id="path90"
           d="m 22.151,118.491 3.522,0 0,5.41 8.313,0 0,-5.41 3.521,0 0,14.041 -3.521,0 0,-6.027 -8.313,0 0,6.027 -3.522,0 0,-14.041" />
        <path
           style="fill:#000000;fill-opacity:1"
           inkscape:connector-curvature="0"
           id="path92"
           d="m 48.188,122.805 c -0.103,-0.178 -0.181,-0.376 -0.241,-0.555 -0.06,-0.179 -0.098,-0.358 -0.117,-0.559 -0.061,0.178 -0.102,0.34 -0.14,0.497 -0.083,0.181 -0.141,0.357 -0.221,0.537 l -1.959,4.249 4.531,0 -1.853,-4.169 0,0 z m -2.228,-4.314 3.798,0 6.781,14.041 -3.939,0 -1.391,-3.068 -6.837,0 -1.355,3.068 -3.838,0 6.781,-14.041" />
        <path
           style="fill:#000000;fill-opacity:1"
           inkscape:connector-curvature="0"
           id="path94"
           d="m 58.348,118.491 3.52,0 0,11.453 7.092,0 0,2.588 -10.612,0 0,-14.041" />
        <path
           style="fill:#000000;fill-opacity:1"
           inkscape:connector-curvature="0"
           id="path96"
           d="m 71.077,118.491 5.071,0 3.657,8.592 c 0.377,0.912 0.519,1.291 0.717,2.088 0.139,-0.597 0.257,-0.957 0.654,-1.928 l 3.659,-8.752 5.033,0 0,14.041 -3.323,0 0,-9.824 c 0,-0.42 0.063,-0.776 0.142,-1.313 -0.142,0.415 -0.197,0.579 -0.397,1.075 l -4.194,10.063 -3.206,0 -4.194,-9.865 c -0.221,-0.535 -0.259,-0.693 -0.417,-1.272 0.059,0.599 0.079,0.716 0.121,1.255 l 0,9.883 -3.322,0 0,-14.043" />
        <path
           style="fill:#000000;fill-opacity:1"
           inkscape:connector-curvature="0"
           id="path116"
           d="m 112.768,124.405 5.605,0 c 0.755,0 2.107,-0.098 2.107,-1.668 0,-0.279 -0.036,-0.758 -0.278,-1.096 -0.256,-0.338 -0.596,-0.674 -1.984,-0.674 l -5.45,0 0,3.438 z m -3.519,-5.905 9.663,0 c 1.594,0 3.038,0.14 4.214,1.49 0.718,0.834 0.918,1.889 0.918,2.705 0,1.074 -0.359,2.346 -1.356,3.101 -0.751,0.579 -1.729,0.777 -2.284,0.876 l 4.256,5.864 -4.041,0 -3.854,-5.646 -3.995,0 0,5.646 -3.52,0 0,-14.036" />
        <path
           style="fill:#000000;fill-opacity:1"
           inkscape:connector-curvature="0"
           id="path112"
           d="m 128.48,128.248 c 0.827,1.679 2.842,2.16 4.752,2.129 0.855,-0.018 3.536,-0.205 3.507,-1.913 -0.021,-1.015 -0.999,-1.234 -1.752,-1.361 -0.582,-0.109 -3.474,-0.496 -4.134,-0.605 -1.293,-0.215 -4.564,-0.773 -4.619,-3.955 -0.012,-0.697 0.172,-1.414 0.519,-1.997 1.141,-1.909 3.719,-2.454 5.946,-2.491 2.047,-0.038 3.622,0.234 5.089,1.004 1.446,0.75 2.078,1.775 2.362,2.227 l -3.324,0.895 c -0.12,-0.218 -0.412,-0.731 -1.254,-1.132 -0.939,-0.443 -2.153,-0.499 -2.829,-0.489 -1.551,0.023 -3.137,0.353 -3.113,1.684 0.016,0.916 0.833,1.141 1.892,1.361 0.579,0.109 3.45,0.536 4.11,0.663 1.632,0.271 4.407,0.817 4.465,3.901 0.075,4.512 -4.984,4.769 -7.029,4.797 -2.309,0.029 -5.901,-0.297 -7.774,-3.824 l 3.186,-0.894" />
        <path
           style="fill:#000000;fill-opacity:1"
           inkscape:connector-curvature="0"
           id="path114"
           d="m 93.123,118.491 13.081,0 0,2.527 -9.561,0 0,3.16 8.425,0 0,2.488 -8.425,0 0,3.359 9.959,0 0,2.506 -13.479,0 0,-14.04" />
      </g>
      <g
         style="font-style:normal;font-variant:normal;font-weight:bold;font-stretch:normal;font-size:28.31890678px;line-height:125%;font-family:'Berthold Akzidenz Grotesk';-inkscape-font-specification:'Berthold Akzidenz Grotesk Bold';letter-spacing:0px;word-spacing:0px;fill:#000000;fill-opacity:1;stroke:none;stroke-width:1px;stroke-linecap:butt;stroke-linejoin:miter;stroke-opacity:1"
         id="text4814">
        <path
           d="m 280.48786,160.24931 0,11.52375 c -0.0263,1.44375 -0.0263,3.59625 -3.17625,3.59625 -1.155,0 -2.415,-0.28875 -2.9925,-1.26 -0.315,-0.5775 -0.34125,-1.365 -0.34125,-2.31 l 0,-11.55 -4.6725,0 0,10.3425 c -0.0263,2.52 -0.0263,5.775 3.54375,7.6125 1.26,0.65625 2.91375,0.9975 4.305,0.9975 0.7875,0 4.90875,-0.1575 6.90375,-3.36 1.02375,-1.68 1.05,-3.465 1.07625,-5.25 l 0,-10.3425 -4.64625,0 z"
           style="font-size:26.25px;letter-spacing:1.79999995px"
           id="path5902" />
        <path
           d="m 291.48807,178.78181 4.43625,0 -0.13125,-11.655 c 1.26,2.4675 1.575,3.045 3.255,5.80125 l 3.465,5.85375 4.54125,0 0,-18.5325 -4.43625,0 0.21,11.89125 c -0.86625,-1.6275 -1.3125,-2.4675 -2.7825,-5.06625 l -4.01625,-6.825 -4.54125,0 0,18.5325 z"
           style="font-size:26.25px;letter-spacing:1.79999995px"
           id="path5904" />
        <path
           d="m 313.53953,160.24931 0,18.5325 4.62,0 0,-18.5325 -4.62,0 z"
           style="font-size:26.25px;letter-spacing:1.79999995px"
           id="path5906" />
        <path
           d="m 330.52516,173.42681 -3.8325,-13.1775 -4.935,0 6.3525,18.5325 4.725,0 6.43125,-18.5325 -4.935,0 -3.80625,13.1775 z"
           style="font-size:26.25px;letter-spacing:1.79999995px"
           id="path5908" />
        <path
           d="m 342.90309,178.78181 14.51625,0 0,-3.64875 -9.89625,0 0,-4.41 8.47875,0 0,-3.5175 -8.47875,0 0,-3.36 9.0825,0 0,-3.59625 -13.7025,0 0,18.5325 z"
           style="font-size:26.25px;letter-spacing:1.79999995px"
           id="path5910" />
        <path
           d="m 362.77499,178.78181 4.64625,0 0,-6.615 2.91375,0 3.675,6.615 5.11875,0 -4.27875,-7.4025 c 1.26,-0.4725 3.80625,-1.39125 3.80625,-5.11875 0,-1.68 -0.60375,-3.15 -1.47,-4.12125 -1.70625,-1.8375 -4.12125,-1.86375 -6.06375,-1.89 l -8.3475,0 0,18.5325 z m 8.58375,-15.0675 c 0.97125,0.0262 2.6775,0.105 2.6775,2.4675 0,2.4675 -2.12625,2.52 -2.7825,2.54625 l -3.8325,0 0,-5.01375 3.9375,0 z"
           style="font-size:26.25px;letter-spacing:1.79999995px"
           id="path5912" />
        <path
           d="m 382.79126,175.44806 c 1.155,1.33875 3.22875,3.75375 8.4525,3.75375 2.59875,0 5.27625,-0.55125 6.95625,-2.49375 0.97125,-1.12875 1.47,-2.59875 1.47,-3.9375 0,-2.1 -1.07625,-3.75375 -3.2025,-4.54125 -1.05,-0.3675 -3.70125,-0.86625 -5.67,-1.1025 -0.7875,-0.105 -2.3625,-0.315 -2.3625,-1.7325 0,-0.8925 0.91875,-1.9425 2.75625,-1.9425 1.18125,0 2.3625,0.44625 3.01875,0.81375 0.735,0.42 1.26,0.91875 1.8375,1.49625 l 3.4125,-2.44125 c -1.60125,-1.44375 -3.91125,-3.5175 -8.19,-3.5175 -3.2025,0 -7.455,1.4175 -7.455,6.195 0,3.99 3.85875,4.80375 4.9875,5.04 0.9975,0.21 2.02125,0.34125 3.045,0.4725 1.365,0.18375 3.22875,0.42 3.22875,1.89 0,1.28625 -1.575,2.1525 -3.4125,2.1525 -1.07625,0 -2.33625,-0.23625 -3.57,-0.8925 -0.91875,-0.49875 -1.3125,-0.91875 -1.785,-1.44375 l -3.5175,2.23125 z"
           style="font-size:26.25px;letter-spacing:1.79999995px"
           id="path5914" />
        <path
           d="m 405.28857,160.24931 0,18.5325 4.62,0 0,-18.5325 -4.62,0 z"
           style="font-size:26.25px;letter-spacing:1.79999995px"
           id="path5916" />
        <path
           d="m 413.71668,163.89806 4.83,0 0,14.88375 4.64625,0 0,-14.88375 4.80375,0 0,-3.675 -14.28,0 0,3.675 z"
           style="font-size:26.25px;letter-spacing:1.79999995px"
           id="path5918" />
        <path
           d="m 437.10731,170.14556 0,8.63625 4.5675,0 0,-8.7675 7.00875,-9.765 -5.27625,0 -3.17625,4.96125 c -0.4725,0.76125 -0.525,0.86625 -0.76125,1.39125 l -3.99,-6.3525 -5.32875,0 6.95625,9.89625 z"
           style="font-size:26.25px;letter-spacing:1.79999995px"
           id="path5920" />
        <path
           d="m 475.57962,177.36431 c 2.0475,-1.65375 3.5175,-4.54125 3.5175,-7.74375 0,-1.26 -0.3675,-7.42875 -6.0375,-9.3975 -1.12875,-0.39375 -2.28375,-0.55125 -3.38625,-0.55125 -5.95875,0 -9.135,4.75125 -9.135,9.765 0,5.355 3.33375,9.87 9.21375,9.87 1.91625,0 4.01625,-0.44625 5.8275,-1.9425 z m -1.12875,-7.42875 c -0.13125,3.885 -2.49375,5.46 -4.69875,5.46 -2.17875,0 -4.64625,-1.6275 -4.64625,-6.0375 0,-3.36 1.785,-5.8275 4.59375,-5.8275 1.26,0 2.4675,0.525 3.255,1.365 1.05,1.12875 1.575,3.0975 1.49625,5.04 z"
           style="font-size:26.25px;letter-spacing:1.79999995px"
           id="path5922" />
        <path
           d="m 483.81005,160.24931 0,18.5325 4.62,0 0,-7.48125 8.84625,0 0,-3.59625 -8.84625,0 0,-3.885 9.6075,0 0,-3.57 -14.2275,0 z"
           style="font-size:26.25px;letter-spacing:1.79999995px"
           id="path5924" />
        <path
           d="m 509.36776,163.89806 4.83,0 0,14.88375 4.64625,0 0,-14.88375 4.80375,0 0,-3.675 -14.28,0 0,3.675 z"
           style="font-size:26.25px;letter-spacing:1.79999995px"
           id="path5926" />
        <path
           d="m 527.53463,178.78181 14.51625,0 0,-3.64875 -9.89625,0 0,-4.41 8.47875,0 0,-3.5175 -8.47875,0 0,-3.36 9.0825,0 0,-3.59625 -13.7025,0 0,18.5325 z"
           style="font-size:26.25px;letter-spacing:1.79999995px"
           id="path5928" />
        <path
           d="m 559.3113,172.69181 c -0.63,1.07625 -1.60125,2.75625 -4.01625,2.75625 -2.49375,0 -4.5675,-2.02125 -4.5675,-6.09 0,-3.0975 1.575,-5.88 4.5675,-5.88 0.76125,0 1.65375,0.21 2.54625,0.91875 0.81375,0.6825 1.12875,1.3125 1.39125,1.91625 l 3.675,-1.8375 c -0.525,-0.91875 -1.12875,-1.9425 -2.415,-2.96625 -1.39125,-1.1025 -3.28125,-1.8375 -5.4075,-1.8375 -5.25,0 -8.9775,4.33125 -8.9775,9.8175 0,6.27375 3.96375,9.84375 8.8725,9.84375 2.5725,0 4.38375,-1.07625 5.17125,-1.6275 1.47,-1.02375 2.12625,-2.07375 2.80875,-3.15 l -3.64875,-1.86375 z"
           style="font-size:26.25px;letter-spacing:1.79999995px"
           id="path5930" />
        <path
           d="m 578.16069,160.24931 0,6.69375 -6.7725,0 0,-6.69375 -4.6725,0 0,18.5325 4.6725,0 0,-7.90125 6.7725,0 0,7.90125 4.64625,0 0,-18.5325 -4.64625,0 z"
           style="font-size:26.25px;letter-spacing:1.79999995px"
           id="path5932" />
        <path
           d="m 589.30486,178.78181 4.43625,0 -0.13125,-11.655 c 1.26,2.4675 1.575,3.045 3.255,5.80125 l 3.465,5.85375 4.54125,0 0,-18.5325 -4.43625,0 0.21,11.89125 c -0.86625,-1.6275 -1.3125,-2.4675 -2.7825,-5.06625 l -4.01625,-6.825 -4.54125,0 0,18.5325 z"
           style="font-size:26.25px;letter-spacing:1.79999995px"
           id="path5934" />
        <path
           d="m 625.17738,177.36431 c 2.0475,-1.65375 3.5175,-4.54125 3.5175,-7.74375 0,-1.26 -0.3675,-7.42875 -6.0375,-9.3975 -1.12875,-0.39375 -2.28375,-0.55125 -3.38625,-0.55125 -5.95875,0 -9.135,4.75125 -9.135,9.765 0,5.355 3.33375,9.87 9.21375,9.87 1.91625,0 4.01625,-0.44625 5.8275,-1.9425 z m -1.12875,-7.42875 c -0.13125,3.885 -2.49375,5.46 -4.69875,5.46 -2.17875,0 -4.64625,-1.6275 -4.64625,-6.0375 0,-3.36 1.785,-5.8275 4.59375,-5.8275 1.26,0 2.4675,0.525 3.255,1.365 1.05,1.12875 1.575,3.0975 1.49625,5.04 z"
           style="font-size:26.25px;letter-spacing:1.79999995px"
           id="path5936" />
        <path
           d="m 633.43405,178.78181 11.865,0 0,-3.91125 -7.245,0 0,-14.6475 -4.62,0 0,18.55875 z"
           style="font-size:26.25px;letter-spacing:1.79999995px"
           id="path5938" />
        <path
           d="m 663.33302,177.36431 c 2.0475,-1.65375 3.5175,-4.54125 3.5175,-7.74375 0,-1.26 -0.3675,-7.42875 -6.0375,-9.3975 -1.12875,-0.39375 -2.28375,-0.55125 -3.38625,-0.55125 -5.95875,0 -9.135,4.75125 -9.135,9.765 0,5.355 3.33375,9.87 9.21375,9.87 1.91625,0 4.01625,-0.44625 5.8275,-1.9425 z m -1.12875,-7.42875 c -0.13125,3.885 -2.49375,5.46 -4.69875,5.46 -2.17875,0 -4.64625,-1.6275 -4.64625,-6.0375 0,-3.36 1.785,-5.8275 4.59375,-5.8275 1.26,0 2.4675,0.525 3.255,1.365 1.05,1.12875 1.575,3.0975 1.49625,5.04 z"
           style="font-size:26.25px;letter-spacing:1.79999995px"
           id="path5940" />
        <path
           d="m 684.66222,178.78181 3.6225,0 0,-10.29 -8.05875,0 0,3.5175 4.1475,0 c -0.13125,0.97125 -0.28875,1.96875 -1.49625,2.75625 -0.76125,0.49875 -1.70625,0.70875 -2.54625,0.70875 -1.4175,0 -2.6775,-0.5775 -3.38625,-1.33875 -0.8925,-0.91875 -1.47,-2.625 -1.47,-4.725 0,-3.0975 1.33875,-6.01125 4.85625,-6.01125 2.5725,0 3.64875,1.6275 4.305,2.625 l 3.5175,-2.12625 c -0.86625,-1.12875 -3.255,-4.27875 -8.16375,-4.27875 -5.27625,0 -9.135,3.96375 -9.135,9.9225 0,5.46 3.17625,9.66 8.3475,9.66 3.12375,0 4.69875,-1.44375 5.46,-2.1525 l 0,1.7325 z"
           style="font-size:26.25px;letter-spacing:1.79999995px"
           id="path5942" />
        <path
           d="m 697.2243,170.14556 0,8.63625 4.5675,0 0,-8.7675 7.00875,-9.765 -5.27625,0 -3.17625,4.96125 c -0.4725,0.76125 -0.525,0.86625 -0.76125,1.39125 l -3.99,-6.3525 -5.32875,0 6.95625,9.89625 z"
           style="font-size:26.25px;letter-spacing:1.79999995px"
           id="path5944" />
      </g>
    </g>
  </g>
</svg>
