<?xml version="1.0" encoding="UTF-8" standalone="no"?>
<!-- Created with Inkscape (http://www.inkscape.org/) -->

<svg
   xmlns:dc="http://purl.org/dc/elements/1.1/"
   xmlns:cc="http://creativecommons.org/ns#"
   xmlns:rdf="http://www.w3.org/1999/02/22-rdf-syntax-ns#"
   xmlns:svg="http://www.w3.org/2000/svg"
   xmlns="http://www.w3.org/2000/svg"
   xmlns:sodipodi="http://sodipodi.sourceforge.net/DTD/sodipodi-0.dtd"
   xmlns:inkscape="http://www.inkscape.org/namespaces/inkscape"
   width="26.980385mm"
   height="26.980951mm"
   viewBox="0 0 95.599789 95.601796"
   id="svg6224"
   version="1.1"
   inkscape:version="0.91 r13725"
   sodipodi:docname="gu_emblem.svg">
  <defs
     id="defs6226" />
  <sodipodi:namedview
     id="base"
     pagecolor="#ffffff"
     bordercolor="#666666"
     borderopacity="1.0"
     inkscape:pageopacity="0.0"
     inkscape:pageshadow="2"
     inkscape:zoom="1.7294922"
     inkscape:cx="144.39447"
     inkscape:cy="62.450249"
     inkscape:document-units="px"
     inkscape:current-layer="layer1"
     showgrid="false"
     fit-margin-bottom="1"
     fit-margin-right="1"
     fit-margin-top="1"
     fit-margin-left="1"
     inkscape:window-width="2560"
     inkscape:window-height="1392"
     inkscape:window-x="1200"
     inkscape:window-y="0"
     inkscape:window-maximized="1" />
  <metadata
     id="metadata6229">
    <rdf:RDF>
      <cc:Work
         rdf:about="">
        <dc:format>image/svg+xml</dc:format>
        <dc:type
           rdf:resource="http://purl.org/dc/dcmitype/StillImage" />
        <dc:title></dc:title>
      </cc:Work>
    </rdf:RDF>
  </metadata>
  <g
     inkscape:label="Layer 1"
     inkscape:groupmode="layer"
     id="layer1"
     transform="translate(-220.48695,-499.21066)">
    <g
       transform="matrix(2.1892991,0,0,2.1892991,128.66395,502.75387)"
       id="g4620">
      <path
         style="fill:#231f20"
         inkscape:connector-curvature="0"
         id="path14"
         d="M 63.475,34.037 C 55.853,33.872 49.789,27.536 49.953,19.915 c 0.08,-3.694 1.593,-7.134 4.261,-9.688 2.668,-2.553 6.17,-3.917 9.86,-3.835 7.623,0.165 13.691,6.5 13.525,14.123 -0.082,3.691 -1.594,7.131 -4.263,9.688 -2.666,2.553 -6.169,3.914 -9.861,3.834 M 53.427,9.407 c -2.888,2.766 -4.525,6.486 -4.612,10.483 -0.178,8.248 6.388,15.105 14.635,15.284 3.998,0.088 7.787,-1.386 10.676,-4.152 2.887,-2.763 4.526,-6.487 4.61,-10.484 C 78.916,12.29 72.348,5.434 64.098,5.257 60.104,5.166 56.313,6.641 53.427,9.407" />
      <path
         style="fill:#231f20"
         inkscape:connector-curvature="0"
         id="path16"
         d="M 63.356,39.511 C 52.716,39.281 44.249,30.435 44.48,19.797 44.59,14.642 46.703,9.841 50.425,6.275 54.149,2.71 59.038,0.806 64.193,0.919 c 5.153,0.11 9.956,2.224 13.521,5.949 3.568,3.722 5.469,8.609 5.357,13.764 C 82.843,31.27 73.995,39.74 63.356,39.511 M 49.793,5.615 c -3.898,3.734 -6.11,8.765 -6.228,14.163 -0.241,11.145 8.626,20.406 19.771,20.648 11.146,0.243 20.41,-8.63 20.649,-19.775 C 84.105,15.255 82.11,10.133 78.378,6.234 74.64,2.333 69.61,0.12 64.213,0.005 c -5.4,-0.118 -10.52,1.875 -14.42,5.61" />
      <path
         style="fill:#231f20"
         inkscape:connector-curvature="0"
         id="path18"
         d="m 67.797,32.235 c -7.506,1.344 -13.518,-1.576 -14.619,-5.177 -0.711,-2.332 0.321,-2.839 0.487,-4.521 -1.299,0.694 -1.54,-1.108 -0.392,-1.265 1.215,-0.162 1.757,1.113 1.165,2.81 -0.848,2.44 0.644,3.57 1.063,3.445 0.019,-0.126 0.172,-0.438 0.244,-0.576 -1.02,-1.306 -0.593,-3.207 1.147,-3.363 0.711,-0.065 0.64,0.453 0.147,0.525 -1.337,0.191 -1.272,1.685 -0.718,1.875 0.099,0 0.212,-0.028 0.312,-0.126 -0.023,-0.305 0.187,-0.736 0.532,-0.648 0.771,0.192 0.477,1.173 -0.052,1.252 -0.198,0.604 -0.578,1.446 -0.494,1.883 0.078,0.436 0.385,0.522 0.636,0.27 0.187,-0.185 0.276,-0.633 0.396,-1.123 -0.128,-0.552 0.143,-0.969 0.608,-0.771 0.324,0.139 0.359,0.636 0.042,1.02 -0.042,0.474 -0.25,1.011 -0.204,1.373 0.046,0.364 0.542,0.338 0.721,0.141 0.18,-0.195 0.363,-1.478 0.436,-1.759 -0.279,-0.247 -0.169,-1.005 0.402,-1.051 0.673,-0.052 0.518,0.863 0.328,1.091 0.187,0.715 -0.118,1.522 0.018,1.84 0.137,0.32 0.661,0.394 0.897,0.132 0.237,-0.261 -0.061,-0.812 0.07,-1.455 -0.227,-0.553 0.036,-0.999 0.366,-1.025 0.75,-0.062 0.538,0.614 0.399,1.089 0.038,0.487 0.121,1.065 0.29,1.515 0.108,0.289 0.589,0.354 0.749,-0.019 0.1,-0.233 -0.128,-0.896 -0.183,-1.362 -0.324,-0.755 -0.049,-0.961 0.241,-0.986 0.276,-0.021 0.65,0.133 0.601,0.879 0.151,0.504 0.281,1.111 0.469,1.508 0.084,0.316 0.472,0.349 0.593,0.018 0.119,-0.327 -0.106,-0.711 -0.348,-1.239 -0.539,-0.521 -0.05,-0.922 0.258,-0.95 0.305,-0.023 0.784,0.059 0.684,0.874 0.166,0.494 0.276,0.945 0.386,1.206 0.127,0.3 0.547,0.338 0.728,0.141 0.18,-0.199 -0.166,-0.548 -0.254,-0.976 -0.407,-0.395 -0.333,-0.933 0.13,-0.971 0.236,-0.018 0.698,0.008 0.655,0.7 0.136,0.298 0.138,0.681 0.338,1.003 0.242,0.399 0.616,0.249 0.767,-0.107 0.146,-0.359 -0.782,-1.399 -0.058,-1.458 0.728,-0.056 0.856,0.896 1.091,1.126 0.236,0.226 0.416,0.075 0.527,-0.048 0.19,-0.21 -0.315,-0.781 0.037,-0.942 0.715,-0.328 0.701,0.484 1.208,0.494 2.209,0.034 3.948,-3.594 3.691,-4.615 -0.74,-0.441 -0.481,-1.535 0.139,-1.547 1.523,-0.025 1.309,2.125 0.151,4.623 -1.513,3.275 -5.237,4.96 -6.827,5.247" />
      <path
         style="fill:#231f20"
         inkscape:connector-curvature="0"
         id="path20"
         d="m 69.765,14.392 c -0.244,0.236 -1.021,0.286 -1.418,0.056 -0.328,-0.193 -0.403,-1.637 -0.237,-2.025 0.166,-0.391 1.86,-0.406 1.994,-0.138 0.134,0.267 -0.093,1.872 -0.339,2.107 m -3.036,-1.784 c 0.055,0.205 0.256,1.117 0.304,1.663 0.027,0.205 -0.048,0.453 -0.171,0.5 -0.303,0.117 -0.81,0.086 -1.085,-0.019 -0.302,-0.115 -0.099,-1.319 -1.207,-1.534 0.152,-0.107 0.232,-0.22 0.264,-0.483 0.019,-0.175 0.232,-0.36 0.494,-0.392 0.508,-0.058 0.824,-0.072 0.995,-0.066 0.17,0.005 0.351,0.121 0.406,0.331 m -2.147,5.976 c -0.647,-0.013 -0.89,-4.055 -0.221,-4.042 0.601,0.013 0.667,4.05 0.221,4.042 m 6.435,-3.589 c -0.025,-0.008 -0.031,-0.053 -0.025,-0.069 0.341,-1.311 0.59,-1.889 0.714,-3.195 0.029,-0.313 -0.195,-0.565 -0.401,-0.616 -0.807,-0.202 -1.181,-0.194 -1.493,-0.219 -0.031,-0.003 -0.107,-0.017 -0.129,-0.063 -0.095,-0.188 -0.232,-0.759 -0.234,-1.048 0.472,-1 -0.37,-1.347 -1.164,-1.333 -0.521,-0.024 -1.053,0.213 -1.114,0.606 -0.07,0.756 0.765,1.034 1.064,1.059 0.05,0.108 0.172,0.638 0.193,0.848 0.002,0.025 -0.024,0.056 -0.059,0.056 -1.343,0.025 -3.081,0.261 -3.962,0.328 -0.126,0.02 -0.188,-0.052 -0.213,-0.125 C 64.03,10.771 63.333,8.639 64.642,8.68 65.42,8.702 66.071,8.067 65.332,7.582 65.143,7.457 64.149,7.336 63.61,7.43 63.165,7.503 62.949,8.01 63.005,8.45 63.093,9.138 61.375,9.21 60.868,9.005 60.507,8.856 60.059,8.426 59.904,8.146 59.574,7.558 59.003,8.009 59.107,8.324 c 0.711,2.145 2.98,1.804 3.575,1.833 0.028,10e-4 0.079,0.042 0.083,0.057 0.145,0.773 0.607,1.593 0.604,1.893 -0.283,0.316 -0.161,0.987 0.236,1.103 -0.486,0.468 -0.705,2.099 -0.628,3.454 0.101,1.727 0.797,3.399 1.896,3.22 1.395,-0.227 0.845,-3.454 1.185,-3.731 0.171,-0.135 0.623,-0.098 0.788,-0.077 0.039,0.005 0.059,0.048 0.057,0.068 -0.11,1.266 -0.41,3.297 -0.485,3.838 -0.076,0.553 -0.12,0.84 0.158,1.35 0.308,0.561 0.869,2.347 0.212,4.239 -0.02,0.072 -0.08,0.098 -0.103,0.103 -0.592,0.134 -0.908,0.318 -1.123,0.466 -0.233,0.157 -0.483,0.487 -0.313,0.688 0.248,0.225 1.841,0.141 2.332,-0.598 0.012,-0.018 0.046,-0.087 0.051,-0.102 0.171,-0.477 0.384,-0.821 0.543,-1.127 0.736,-1.401 0.843,-3.125 -0.164,-3.904 -0.283,-0.217 -0.571,-0.425 -0.297,-0.97 0.533,-1.056 0.59,-2.208 0.658,-3.183 0.025,-0.393 0.676,-0.615 0.923,-0.246 0.61,1.447 0.132,2.692 0.122,3.205 -0.013,0.515 0.182,0.753 0.249,1.063 0.415,1.885 0.207,3.409 -0.171,5.354 -0.003,0.042 -0.034,0.073 -0.073,0.083 -0.442,0.147 -0.713,0.24 -0.989,0.435 -0.28,0.196 -0.391,0.446 -0.269,0.585 0.371,0.417 2.044,-0.037 2.171,-0.515 0.313,-1.194 2.57,-3.958 1.001,-5.723 -0.718,-0.808 -0.718,-0.484 -0.726,-0.892 -0.002,-0.194 0.449,-1.266 0.564,-2.089 0.117,-0.864 -0.444,-1.684 -0.306,-2.16 0.005,-0.012 0.042,-0.037 0.057,-0.033 0.231,0.044 0.786,0.191 1.143,0.394 0.109,0.063 0.3,0.014 0.328,-0.413 0.032,-0.466 -1.145,-0.913 -1.379,-0.997" />
      <path
         style="fill:#231f20"
         inkscape:connector-curvature="0"
         id="path22"
         d="m 56.85,20.902 c -0.229,-0.128 -0.052,-0.587 0.28,-0.638 0.231,-0.034 1.019,-0.128 1.294,-0.01 0.21,0.091 0.359,0.535 0.24,0.668 -0.226,0.249 -1.487,0.161 -1.814,-0.02 m -2.632,-1.457 c -0.022,-0.274 0.347,-0.582 0.628,-0.522 0.226,0.047 0.928,0.788 0.961,0.962 0.059,0.316 -0.195,0.569 -0.407,0.584 -0.332,0.023 -1.159,-0.727 -1.182,-1.024 m 0.138,-1.491 c -0.161,0.194 -0.522,0.313 -0.696,0.174 -0.261,-0.208 -0.339,-1.061 -0.17,-1.424 0.113,-0.247 0.71,-0.381 0.82,-0.1 0.075,0.191 0.165,1.211 0.046,1.35 m 0.204,-2.422 c -0.288,0.144 -0.557,-0.053 -0.587,-0.407 -0.03,-0.355 0.809,-1.226 1.111,-1.141 0.148,0.042 0.37,0.322 0.347,0.574 -0.017,0.172 -0.703,0.89 -0.871,0.974 m 4.533,3.093 c -0.302,-0.131 -1.081,-1.157 -0.804,-1.437 0.26,-0.261 1.355,-0.814 1.531,-0.651 0.682,0.632 -0.138,2.344 -0.727,2.088 m -3.191,-0.208 c 0,-0.199 1.025,-0.894 1.431,-0.742 0.323,0.12 0.833,1.398 0.558,1.529 -0.745,0.351 -1.989,-0.461 -1.989,-0.787 m 0.255,-3.12 c 0.147,-0.033 0.829,1.027 0.704,1.417 -0.104,0.334 -1.364,0.803 -1.489,0.674 -0.385,-0.382 -0.05,-1.916 0.785,-2.091 m 3.097,0.277 c 0,0.328 -1.14,0.872 -1.368,0.739 -0.333,-0.196 -1.011,-1.204 -0.869,-1.377 0.49,-0.611 2.237,0.126 2.237,0.638 m -0.979,-2.231 c 0.069,0.153 0.156,0.359 -0.005,0.537 -0.134,0.147 -1.343,0.188 -1.522,0.176 -0.383,-0.024 -0.56,-0.415 -0.435,-0.612 0.231,-0.355 1.829,-0.385 1.962,-0.101 m 2.659,1.545 c -0.041,0.212 -0.389,0.294 -0.539,0.276 -0.186,-0.022 -0.975,-0.638 -1.025,-0.853 -0.066,-0.284 0.124,-0.465 0.305,-0.51 0.489,-0.123 1.315,0.784 1.259,1.087 m 0.674,2.858 c -0.18,0.118 -0.519,0.141 -0.662,-0.077 -0.099,-0.147 -0.129,-1.244 -0.063,-1.406 0.067,-0.169 0.436,-0.294 0.644,-0.179 0.24,0.131 0.373,1.468 0.081,1.662 m -1.17,1.094 c 0.187,-0.016 0.535,0.025 0.638,0.279 0.11,0.277 -0.656,1.143 -1.012,1.243 -0.216,0.063 -0.538,-0.264 -0.479,-0.584 0.038,-0.209 0.702,-0.925 0.853,-0.938 m 2.037,-2.452 c -0.127,-1.528 -1.551,-3.547 -3.633,-3.895 -2.265,-0.374 -5.779,0.531 -6.159,3.855 -0.394,3.438 2.24,5.994 5.4,5.751 3.429,-0.261 4.569,-3.549 4.392,-5.711" />
      <path
         style="fill:#231f20"
         inkscape:connector-curvature="0"
         id="path24"
         d="m 57.528,3.047 -0.098,0.77 -0.498,0.597 0.771,0.098 0.595,0.499 0.098,-0.77 0.5,-0.597 -0.771,-0.1 -0.597,-0.497" />
      <path
         style="fill:#231f20"
         inkscape:connector-curvature="0"
         id="path26"
         d="m 71.954,36.451 -0.627,-0.458 -0.776,-0.046 0.457,-0.63 0.049,-0.776 0.627,0.46 0.776,0.047 -0.459,0.628 -0.047,0.775" />
      <path
         style="fill:#231f20"
         inkscape:connector-curvature="0"
         id="path28"
         d="m 55.537,36.423 0.629,-0.457 0.776,-0.043 -0.454,-0.63 -0.047,-0.776 -0.629,0.457 -0.774,0.046 0.456,0.628 0.043,0.775" />
      <path
         style="fill:#231f20"
         inkscape:connector-curvature="0"
         id="path30"
         d="m 51.245,33.086 0.792,-0.926 c 0.359,-0.423 0.934,-0.395 1.481,0.074 0.553,0.471 0.675,1.037 0.314,1.458 l -0.791,0.929 c -0.096,0.111 -0.1,0.174 0.03,0.286 l -0.283,0.214 -0.763,-0.65 0.17,-0.31 c 0.129,0.11 0.192,0.096 0.288,-0.016 l 0.796,-0.93 c 0.157,-0.188 0.141,-0.413 -0.105,-0.623 -0.253,-0.215 -0.481,-0.199 -0.639,-0.013 L 51.74,33.51 c -0.096,0.115 -0.1,0.177 0.028,0.284 l -0.281,0.217 -0.696,-0.595 0.166,-0.313 c 0.129,0.112 0.191,0.096 0.288,-0.017" />
      <path
         style="fill:#231f20"
         inkscape:connector-curvature="0"
         id="path32"
         d="m 48.705,29.995 1.673,-1.252 0.314,0.42 -0.524,1.768 c -0.035,0.123 -0.131,0.314 -0.131,0.314 0,0 0.15,-0.137 0.226,-0.193 l 0.738,-0.553 c 0.116,-0.088 0.14,-0.149 0.037,-0.285 l 0.32,-0.149 0.502,0.674 -0.229,0.268 c -0.103,-0.137 -0.17,-0.135 -0.286,-0.048 l -1.229,0.922 c -0.119,0.087 -0.137,0.15 -0.035,0.285 l -0.322,0.147 -0.451,-0.606 0.472,-1.606 c 0.04,-0.125 0.138,-0.322 0.138,-0.322 0,0 -0.153,0.144 -0.24,0.207 l -0.627,0.472 c -0.119,0.088 -0.137,0.148 -0.035,0.287 l -0.32,0.148 -0.506,-0.673 0.232,-0.266 c 0.103,0.134 0.164,0.129 0.283,0.041" />
      <path
         style="fill:#231f20"
         inkscape:connector-curvature="0"
         id="path34"
         d="m 49.35,26.79 0.435,0.881 -0.277,0.219 c -0.076,-0.155 -0.143,-0.166 -0.273,-0.098 l -1.376,0.682 c -0.133,0.064 -0.161,0.121 -0.086,0.274 l -0.341,0.089 -0.437,-0.879 0.277,-0.22 c 0.075,0.153 0.139,0.166 0.273,0.1 l 1.374,-0.682 c 0.131,-0.067 0.164,-0.125 0.089,-0.279 L 49.35,26.79" />
      <path
         style="fill:#231f20"
         inkscape:connector-curvature="0"
         id="path36"
         d="m 46.229,24.163 2.261,0.202 0.198,0.677 -1.791,1.387 c -0.13,0.102 -0.146,0.155 -0.101,0.307 l -0.353,0.023 -0.277,-0.938 0.31,-0.171 c 0.044,0.136 0.099,0.154 0.212,0.071 l 0.867,-0.651 c 0.144,-0.1 0.448,-0.246 0.448,-0.246 0,0 -0.338,0.038 -0.513,0.029 l -1.089,-0.105 c -0.147,-0.011 -0.176,0.051 -0.136,0.189 l -0.352,0.031 -0.246,-0.836 0.312,-0.166 c 0.046,0.154 0.086,0.182 0.25,0.197" />
      <path
         style="fill:#231f20"
         inkscape:connector-curvature="0"
         id="path38"
         d="m 47.901,20.62 0.184,2.026 -0.336,0.108 C 47.732,22.583 47.674,22.552 47.53,22.565 l -1.529,0.138 c -0.148,0.016 -0.196,0.058 -0.18,0.229 l -0.352,-0.046 -0.176,-1.937 0.625,-0.057 0.079,0.266 c -0.202,0.049 -0.243,0.108 -0.216,0.403 l 0.04,0.448 0.634,-0.057 -0.038,-0.41 C 46.401,21.37 46.365,21.309 46.23,21.322 l 0.041,-0.287 0.625,-0.059 0.098,0.274 c -0.141,0.016 -0.162,0.08 -0.148,0.253 l 0.038,0.408 0.687,-0.063 -0.057,-0.624 c -0.023,-0.27 -0.105,-0.314 -0.295,-0.331 l 0.03,-0.292 0.652,0.019" />
      <path
         style="fill:#231f20"
         inkscape:connector-curvature="0"
         id="path40"
         d="m 45.821,18.156 -0.044,0.389 0.75,0.084 0.044,-0.377 c 0.031,-0.283 -0.097,-0.449 -0.325,-0.474 -0.23,-0.025 -0.393,0.098 -0.425,0.378 m 2.363,-1.087 -0.087,0.776 c -0.412,0.338 -1.055,-0.013 -1.113,0.518 l -0.036,0.314 0.5,0.057 c 0.144,0.015 0.204,-0.014 0.221,-0.185 l 0.336,0.112 -0.108,0.966 -0.351,0.039 c 0.02,-0.174 -0.033,-0.216 -0.176,-0.23 l -1.525,-0.17 c -0.146,-0.017 -0.204,0.014 -0.223,0.185 l -0.335,-0.115 0.147,-1.322 c 0.072,-0.64 0.378,-0.987 0.864,-0.933 0.318,0.037 0.52,0.228 0.605,0.569 0.127,-0.315 0.437,-0.362 0.622,-0.381 0.217,-0.019 0.293,-0.051 0.315,-0.252 l 0.007,-0.059 0.337,0.111" />
      <path
         style="fill:#231f20"
         inkscape:connector-curvature="0"
         id="path42"
         d="m 48.727,15.381 c -0.159,0.493 -0.432,0.799 -0.566,0.928 l -0.496,-0.311 0.072,-0.227 c 0.314,0 0.51,-0.249 0.595,-0.508 0.063,-0.199 0.037,-0.434 -0.175,-0.502 -0.183,-0.06 -0.309,0.053 -0.513,0.439 -0.203,0.396 -0.534,0.75 -1.041,0.587 -0.495,-0.161 -0.632,-0.691 -0.451,-1.257 0.139,-0.429 0.365,-0.728 0.491,-0.857 l 0.469,0.297 -0.072,0.224 c -0.272,0.028 -0.436,0.255 -0.5,0.457 -0.072,0.225 -0.022,0.413 0.144,0.467 0.164,0.053 0.282,-0.066 0.433,-0.353 0.276,-0.525 0.575,-0.868 1.131,-0.69 0.542,0.177 0.657,0.756 0.479,1.306" />
      <path
         style="fill:#231f20"
         inkscape:connector-curvature="0"
         id="path44"
         d="m 49.892,12.559 -0.448,0.872 -0.34,-0.092 c 0.078,-0.151 0.046,-0.213 -0.083,-0.279 l -1.365,-0.698 c -0.134,-0.069 -0.195,-0.058 -0.274,0.094 l -0.274,-0.223 0.448,-0.871 0.339,0.092 c -0.076,0.151 -0.049,0.209 0.084,0.277 l 1.366,0.699 c 0.129,0.065 0.196,0.059 0.273,-0.095 l 0.274,0.224" />
      <path
         style="fill:#231f20"
         inkscape:connector-curvature="0"
         id="path46"
         d="M 50.013,8.943 C 49.849,8.862 49.751,8.852 49.588,9.074 l -0.151,0.208 1.32,0.969 c 0.117,0.084 0.181,0.09 0.282,-0.047 l 0.236,0.263 -0.575,0.784 -0.324,-0.143 c 0.103,-0.141 0.079,-0.202 -0.038,-0.286 l -1.32,-0.969 -0.151,0.208 c -0.164,0.222 -0.126,0.315 0.002,0.443 l -0.212,0.195 -0.483,-0.442 1.39,-1.896 0.573,0.324 -0.124,0.258" />
      <path
         style="fill:#231f20"
         inkscape:connector-curvature="0"
         id="path48"
         d="m 51.734,7.261 c -0.13,-0.076 -0.397,-0.3 -0.397,-0.3 0,0 0.192,0.3 0.257,0.433 l 0.281,0.665 0.493,-0.461 -0.634,-0.337 z m 2.242,0.427 -0.704,0.658 -0.29,-0.203 C 53.078,8.054 53.085,7.996 52.949,7.924 l -0.19,-0.096 -0.685,0.639 0.08,0.2 c 0.061,0.147 0.131,0.129 0.231,0.034 L 52.568,9.006 51.96,9.572 51.671,9.37 c 0.111,-0.105 0.13,-0.161 0.064,-0.313 l -0.66,-1.56 C 51.032,7.402 50.971,7.373 50.848,7.488 l -0.181,-0.305 1.014,-0.946 0.292,0.199 c -0.124,0.119 -0.108,0.174 -0.01,0.221 l 1.517,0.77 c 0.14,0.073 0.197,0.067 0.312,-0.04 l 0.184,0.301" />
      <path
         style="fill:#231f20"
         inkscape:connector-curvature="0"
         id="path50"
         d="m 55.446,6.786 c -0.438,0.27 -0.845,0.326 -1.033,0.34 L 54.237,6.565 54.44,6.442 c 0.237,0.202 0.55,0.14 0.781,-0.002 0.178,-0.111 0.311,-0.309 0.194,-0.5 C 55.314,5.779 55.145,5.782 54.739,5.943 54.328,6.114 53.845,6.173 53.564,5.72 53.29,5.278 53.531,4.782 54.035,4.47 54.419,4.231 54.785,4.15 54.966,4.134 l 0.163,0.53 -0.199,0.124 C 54.701,4.633 54.434,4.699 54.253,4.81 c -0.2,0.126 -0.286,0.304 -0.192,0.451 0.09,0.146 0.256,0.133 0.558,0.012 0.55,-0.223 1,-0.288 1.308,0.207 0.301,0.485 0.013,0.999 -0.481,1.306" />
      <path
         style="fill:#231f20"
         inkscape:connector-curvature="0"
         id="path52"
         d="m 62.828,3.309 c -0.179,0.026 -0.207,0.083 -0.189,0.225 l 0.026,0.201 c 0.02,0.135 0.053,0.166 0.141,0.152 L 62.785,4.221 C 62.412,4.297 62.347,4.461 61.776,4.538 61.012,4.641 60.315,4.357 60.185,3.385 60.063,2.494 60.582,1.963 61.414,1.85 c 0.497,-0.067 0.884,0.078 1.048,0.146 l -0.068,0.605 -0.229,0.03 C 62.053,2.367 61.809,2.288 61.539,2.323 61.061,2.389 60.844,2.692 60.925,3.287 61.006,3.888 61.26,4.12 61.729,4.058 61.844,4.042 61.982,3.988 62.058,3.936 L 62.014,3.615 C 61.995,3.476 61.955,3.426 61.772,3.448 l -0.047,0.007 0.026,-0.352 1.007,-0.136 0.117,0.332 -0.047,0.01" />
      <path
         style="fill:#231f20"
         inkscape:connector-curvature="0"
         id="path54"
         d="M 65.235,2.24 C 64.828,2.206 64.614,2.416 64.561,3.066 64.508,3.717 64.686,3.959 65.093,3.99 65.511,4.025 65.716,3.815 65.767,3.162 65.821,2.514 65.653,2.273 65.235,2.24 M 65.056,4.466 C 64.267,4.403 63.738,3.992 63.817,3.006 63.898,2.02 64.484,1.7 65.275,1.764 c 0.804,0.063 1.321,0.474 1.243,1.46 -0.081,0.986 -0.659,1.307 -1.462,1.242" />
      <path
         style="fill:#231f20"
         inkscape:connector-curvature="0"
         id="path56"
         d="M 69.398,3.336 C 69.418,3.155 69.39,3.059 69.122,2.987 l -0.246,-0.069 -0.433,1.58 c -0.036,0.139 -0.02,0.203 0.146,0.246 L 68.429,5.06 67.49,4.804 67.508,4.45 c 0.169,0.046 0.217,0.002 0.256,-0.139 L 68.194,2.732 67.947,2.664 C 67.679,2.59 67.609,2.659 67.532,2.826 l -0.256,-0.129 0.241,-0.61 2.269,0.619 -0.101,0.65 -0.287,-0.02" />
      <path
         style="fill:#231f20"
         inkscape:connector-curvature="0"
         id="path58"
         d="m 72.145,6.695 -0.864,-0.44 0.088,-0.344 c 0.156,0.08 0.21,0.046 0.276,-0.082 L 71.912,5.304 71.028,4.851 70.761,5.375 c -0.068,0.13 -0.062,0.197 0.09,0.274 L 70.629,5.922 69.762,5.48 69.851,5.139 c 0.155,0.079 0.212,0.046 0.277,-0.083 L 70.824,3.688 C 70.892,3.554 70.885,3.493 70.728,3.413 L 70.956,3.142 71.82,3.583 71.729,3.924 C 71.578,3.846 71.524,3.874 71.455,4.01 L 71.241,4.43 72.125,4.88 72.34,4.46 C 72.408,4.326 72.402,4.267 72.246,4.187 l 0.226,-0.273 0.864,0.44 -0.09,0.341 C 73.092,4.617 73.041,4.648 72.973,4.782 l -0.697,1.365 c -0.064,0.13 -0.06,0.197 0.092,0.272 l -0.223,0.276" />
      <path
         style="fill:#231f20"
         inkscape:connector-curvature="0"
         id="path60"
         d="m 75.226,6.282 c -0.314,-0.259 -0.61,-0.21 -1.025,0.292 -0.415,0.507 -0.407,0.804 -0.089,1.065 0.321,0.265 0.611,0.21 1.024,-0.293 0.415,-0.505 0.415,-0.798 0.09,-1.064 M 73.808,8.008 C 73.195,7.505 72.997,6.866 73.624,6.101 c 0.63,-0.764 1.294,-0.689 1.907,-0.188 0.621,0.512 0.813,1.145 0.186,1.909 -0.63,0.766 -1.288,0.698 -1.909,0.186" />
      <path
         style="fill:#231f20"
         inkscape:connector-curvature="0"
         id="path62"
         d="m 77.18,9.081 0.198,0.245 c 0.163,0.203 0.341,0.216 0.489,0.094 0.146,-0.116 0.171,-0.275 0.005,-0.483 L 77.67,8.688 77.18,9.081 Z m -0.327,0.263 -0.589,0.476 0.232,0.292 c 0.18,0.224 0.385,0.239 0.562,0.094 0.18,-0.143 0.202,-0.358 0.018,-0.586 L 76.853,9.344 Z M 76.229,10.42 75.42,9.418 75.643,9.141 c 0.105,0.133 0.173,0.128 0.285,0.038 L 77.123,8.218 C 77.241,8.123 77.259,8.062 77.151,7.929 L 77.47,7.77 78.224,8.708 c 0.404,0.505 0.45,0.938 0.094,1.227 -0.166,0.133 -0.436,0.138 -0.64,0.037 0.127,0.327 0.026,0.616 -0.2,0.798 -0.379,0.306 -0.843,0.153 -1.249,-0.35" />
      <path
         style="fill:#231f20"
         inkscape:connector-curvature="0"
         id="path64"
         d="m 80.288,13.138 -1.083,0.554 c -0.497,0.252 -1.015,0.003 -1.34,-0.636 -0.33,-0.649 -0.228,-1.216 0.265,-1.467 l 1.088,-0.556 c 0.13,-0.067 0.158,-0.125 0.081,-0.277 l 0.342,-0.089 0.458,0.894 -0.275,0.22 c -0.08,-0.15 -0.14,-0.161 -0.275,-0.093 l -1.089,0.554 c -0.217,0.111 -0.289,0.326 -0.14,0.614 0.151,0.298 0.368,0.368 0.583,0.258 l 1.092,-0.557 c 0.133,-0.068 0.161,-0.125 0.084,-0.273 l 0.341,-0.093 0.415,0.816 -0.269,0.226 C 80.485,13.08 80.422,13.069 80.288,13.138" />
      <path
         style="fill:#231f20"
         inkscape:connector-curvature="0"
         id="path66-5"
         d="m 81.252,15.615 -0.099,-0.38 -0.729,0.194 0.096,0.367 c 0.075,0.275 0.252,0.382 0.476,0.323 0.221,-0.059 0.328,-0.231 0.256,-0.504 m -1.808,1.865 -0.2,-0.752 c 0.262,-0.466 0.989,-0.372 0.851,-0.887 l -0.079,-0.305 -0.487,0.129 c -0.14,0.035 -0.184,0.082 -0.14,0.247 l -0.354,0.019 -0.25,-0.941 0.314,-0.162 c 0.046,0.17 0.107,0.188 0.248,0.15 l 1.483,-0.391 c 0.142,-0.038 0.187,-0.09 0.142,-0.254 l 0.355,-0.015 0.338,1.285 c 0.165,0.623 0.005,1.059 -0.469,1.183 -0.311,0.083 -0.565,-0.023 -0.771,-0.313 -0.002,0.343 -0.274,0.499 -0.443,0.581 -0.195,0.095 -0.254,0.156 -0.202,0.351 l 0.015,0.057 -0.351,0.018" />
      <path
         style="fill:#231f20"
         inkscape:connector-curvature="0"
         id="path68"
         d="M 80.699,20.709 C 80.69,20.53 80.632,20.494 80.494,20.502 l -0.205,0.01 c -0.138,0.008 -0.17,0.04 -0.167,0.128 l -0.33,-0.054 c -0.044,-0.375 -0.202,-0.454 -0.228,-1.03 -0.042,-0.768 0.303,-1.439 1.282,-1.488 0.897,-0.044 1.384,0.517 1.425,1.357 0.023,0.5 -0.153,0.874 -0.235,1.03 l -0.595,-0.121 -0.012,-0.229 c 0.273,-0.09 0.373,-0.323 0.357,-0.599 -0.022,-0.48 -0.307,-0.721 -0.907,-0.693 -0.606,0.031 -0.856,0.264 -0.835,0.738 0.004,0.116 0.047,0.256 0.093,0.338 l 0.322,-0.019 c 0.142,-0.007 0.195,-0.042 0.188,-0.227 l -0.004,-0.046 0.349,0.056 0.049,1.014 -0.34,0.087 -0.002,-0.045" />
      <path
         style="fill:#231f20"
         inkscape:connector-curvature="0"
         id="path70"
         d="m 79.276,23.67 0.306,-2.011 0.354,-0.023 c -0.025,0.17 0.023,0.216 0.166,0.237 l 1.518,0.231 c 0.147,0.023 0.203,-0.01 0.229,-0.178 l 0.33,0.131 -0.294,1.92 -0.62,-0.094 -0.014,-0.279 c 0.208,0.002 0.262,-0.046 0.306,-0.336 L 81.626,22.82 81,22.725 80.937,23.131 c -0.025,0.171 -0.008,0.241 0.128,0.261 l -0.109,0.266 -0.62,-0.092 -0.031,-0.289 c 0.141,0.021 0.18,-0.038 0.205,-0.21 l 0.062,-0.406 -0.682,-0.103 -0.095,0.617 c -0.04,0.271 0.026,0.332 0.207,0.397 l -0.096,0.274 -0.63,-0.176" />
      <path
         style="fill:#231f20"
         inkscape:connector-curvature="0"
         id="path72"
         d="m 80.131,27.657 -1.956,-0.738 0.186,-0.491 1.772,-0.508 c 0.122,-0.035 0.336,-0.061 0.336,-0.061 0,0 -0.2,-0.052 -0.288,-0.086 l -0.86,-0.325 c -0.136,-0.051 -0.199,-0.039 -0.259,0.124 l -0.3,-0.191 0.297,-0.786 0.352,0.052 c -0.061,0.159 -0.023,0.215 0.112,0.266 l 1.437,0.539 c 0.14,0.054 0.2,0.038 0.262,-0.123 l 0.295,0.195 -0.266,0.705 -1.611,0.464 c -0.126,0.036 -0.345,0.056 -0.345,0.056 0,0 0.203,0.054 0.303,0.094 l 0.735,0.274 c 0.139,0.054 0.2,0.035 0.261,-0.123 l 0.298,0.188 -0.298,0.791 -0.348,-0.054 c 0.058,-0.158 0.023,-0.21 -0.115,-0.262" />
      <path
         style="fill:#231f20"
         inkscape:connector-curvature="0"
         id="path74"
         d="m 77.152,28.626 c 0.275,-0.438 0.616,-0.663 0.781,-0.756 l 0.401,0.424 -0.128,0.204 c -0.301,-0.082 -0.556,0.111 -0.702,0.345 -0.112,0.175 -0.143,0.413 0.044,0.529 0.161,0.104 0.31,0.026 0.606,-0.297 0.294,-0.333 0.702,-0.594 1.155,-0.312 0.438,0.278 0.438,0.829 0.123,1.332 -0.24,0.38 -0.535,0.614 -0.691,0.707 L 78.364,30.397 78.487,30.2 c 0.271,0.038 0.487,-0.139 0.6,-0.319 0.126,-0.196 0.123,-0.394 -0.023,-0.49 -0.143,-0.09 -0.289,-0.003 -0.506,0.238 -0.398,0.436 -0.771,0.696 -1.269,0.384 -0.481,-0.308 -0.447,-0.895 -0.137,-1.387" />
      <path
         style="fill:#231f20"
         inkscape:connector-curvature="0"
         id="path76"
         d="m 75.289,31.105 0.653,-0.734 0.307,0.177 c -0.112,0.126 -0.098,0.193 0.011,0.288 l 1.147,1.02 c 0.112,0.099 0.177,0.105 0.289,-0.024 l 0.21,0.286 -0.653,0.732 -0.305,-0.175 c 0.112,-0.128 0.1,-0.191 -0.013,-0.292 l -1.146,-1.017 c -0.11,-0.098 -0.176,-0.104 -0.288,0.021 l -0.212,-0.282" />
      <path
         style="fill:#231f20"
         inkscape:connector-curvature="0"
         id="path78"
         d="m 73.658,32.54 c 0.403,-0.322 0.801,-0.427 0.986,-0.46 l 0.242,0.535 -0.188,0.148 c -0.259,-0.177 -0.562,-0.077 -0.773,0.096 -0.164,0.13 -0.272,0.343 -0.132,0.518 0.118,0.147 0.285,0.125 0.669,-0.085 0.388,-0.217 0.859,-0.332 1.191,0.082 0.327,0.408 0.146,0.928 -0.315,1.299 -0.352,0.282 -0.705,0.405 -0.884,0.445 l -0.226,-0.509 0.185,-0.146 c 0.241,0.128 0.503,0.03 0.669,-0.105 0.183,-0.146 0.246,-0.333 0.137,-0.469 -0.107,-0.132 -0.271,-0.1 -0.555,0.057 -0.52,0.287 -0.959,0.407 -1.324,-0.047 -0.358,-0.45 -0.133,-0.996 0.318,-1.359" />
      <path
         style="fill:#231f20"
         inkscape:connector-curvature="0"
         id="path80"
         d="m 59.516,38.319 -1.31,-0.377 0.027,-0.356 0.168,0.049 c 0.172,0.049 0.228,0.013 0.266,-0.127 l 0.382,-1.333 C 58.956,36.224 58.8,36.246 58.532,36.2 l 0.111,-0.387 c 0.284,0.014 0.457,-0.02 0.75,-0.283 l 0.533,0.152 -0.578,2.021 c -0.038,0.138 -0.005,0.203 0.164,0.251 l 0.169,0.045 -0.165,0.32" />
      <path
         style="fill:#231f20"
         inkscape:connector-curvature="0"
         id="path82"
         d="m 62.229,36.434 c -0.239,-0.021 -0.403,0.063 -0.42,0.229 -0.017,0.167 0.129,0.314 0.356,0.442 0.239,-0.083 0.408,-0.202 0.425,-0.371 0.016,-0.166 -0.135,-0.277 -0.361,-0.3 m -0.103,1.091 c -0.293,0.105 -0.508,0.251 -0.528,0.469 -0.018,0.19 0.169,0.349 0.45,0.377 0.27,0.023 0.49,-0.09 0.51,-0.282 0.019,-0.221 -0.169,-0.405 -0.432,-0.564 m -0.117,1.24 c -0.722,-0.067 -1.154,-0.4 -1.111,-0.837 0.036,-0.377 0.356,-0.562 0.705,-0.677 -0.284,-0.162 -0.523,-0.363 -0.492,-0.666 0.036,-0.385 0.484,-0.609 1.155,-0.546 0.641,0.061 1.059,0.367 1.021,0.751 -0.028,0.303 -0.296,0.456 -0.605,0.564 0.322,0.177 0.604,0.417 0.567,0.796 -0.042,0.438 -0.539,0.683 -1.24,0.615" />
      <path
         style="fill:#231f20"
         inkscape:connector-curvature="0"
         id="path84"
         d="m 65.324,36.46 c -0.313,0.03 -0.478,0.254 -0.445,0.577 0.029,0.302 0.21,0.486 0.511,0.456 0.276,-0.025 0.515,-0.22 0.48,-0.569 -0.021,-0.23 -0.172,-0.499 -0.546,-0.464 m -0.008,2.313 c -0.175,0.016 -0.507,-0.009 -0.621,-0.082 l -0.036,-0.374 c 0.127,0.036 0.313,0.051 0.479,0.036 0.468,-0.045 0.737,-0.28 0.794,-0.745 -0.086,0.14 -0.329,0.276 -0.588,0.299 -0.641,0.065 -1.041,-0.276 -1.092,-0.809 -0.054,-0.548 0.341,-0.979 1.033,-1.045 0.803,-0.079 1.221,0.402 1.288,1.097 0.078,0.828 -0.282,1.53 -1.257,1.623" />
      <path
         style="fill:#231f20"
         inkscape:connector-curvature="0"
         id="path86"
         d="m 69.438,37.944 -1.314,0.347 -0.16,-0.317 0.17,-0.046 c 0.173,-0.047 0.2,-0.105 0.163,-0.247 l -0.354,-1.339 c -0.054,0.089 -0.179,0.189 -0.433,0.287 l -0.1,-0.388 c 0.249,-0.137 0.383,-0.251 0.498,-0.629 l 0.535,-0.142 0.536,2.031 c 0.038,0.142 0.101,0.178 0.269,0.131 l 0.171,-0.042 0.019,0.354" />
    </g>
  </g>
</svg>
