<?xml version="1.0" encoding="UTF-8" standalone="no"?>
<!-- Created with Inkscape (http://www.inkscape.org/) -->

<svg
   xmlns:dc="http://purl.org/dc/elements/1.1/"
   xmlns:cc="http://creativecommons.org/ns#"
   xmlns:rdf="http://www.w3.org/1999/02/22-rdf-syntax-ns#"
   xmlns:svg="http://www.w3.org/2000/svg"
   xmlns="http://www.w3.org/2000/svg"
   xmlns:sodipodi="http://sodipodi.sourceforge.net/DTD/sodipodi-0.dtd"
   xmlns:inkscape="http://www.inkscape.org/namespaces/inkscape"
   width="37.997444mm"
   height="10.669584mm"
   viewBox="0 0 134.63661 37.805613"
   id="svg5542"
   version="1.1"
   inkscape:version="0.91 r13725"
   sodipodi:docname="gu_text.svg">
  <defs
     id="defs5544" />
  <sodipodi:namedview
     id="base"
     pagecolor="#ffffff"
     bordercolor="#666666"
     borderopacity="1.0"
     inkscape:pageopacity="0.0"
     inkscape:pageshadow="2"
     inkscape:zoom="13.835937"
     inkscape:cx="70.068188"
     inkscape:cy="10.651069"
     inkscape:document-units="px"
     inkscape:current-layer="layer1"
     showgrid="false"
     fit-margin-bottom="1"
     fit-margin-right="1"
     fit-margin-top="1"
     fit-margin-left="1"
     inkscape:window-width="2560"
     inkscape:window-height="1392"
     inkscape:window-x="1200"
     inkscape:window-y="0"
     inkscape:window-maximized="1" />
  <metadata
     id="metadata5547">
    <rdf:RDF>
      <cc:Work
         rdf:about="">
        <dc:format>image/svg+xml</dc:format>
        <dc:type
           rdf:resource="http://purl.org/dc/dcmitype/StillImage" />
        <dc:title></dc:title>
      </cc:Work>
    </rdf:RDF>
  </metadata>
  <g
     inkscape:label="Layer 1"
     inkscape:groupmode="layer"
     id="layer1"
     transform="translate(-83.593043,-425.76657)">
    <g
       id="g16"
       transform="translate(87.13635,374.78788)">
      <path
         style="fill:#231f20"
         inkscape:connector-curvature="0"
         id="path22_1_"
         d="m 1.632,61.823 c 0,-0.614 0.017,-0.985 0.017,-2.584 0,-1.277 -0.017,-2.293 -0.034,-3.746 L 1.552,55.428 0,55.347 l 0,-0.549 4.619,0 0,0.549 -1.308,0.081 -0.064,0.065 c -0.019,1.209 -0.033,3.826 -0.033,6.265 0,2.033 0.469,3.408 2.615,3.408 2.245,0 2.892,-1.308 2.892,-3.715 0,-2.1 -0.031,-4.378 -0.065,-5.958 L 8.59,55.428 7.106,55.347 l 0,-0.549 4.28,0 0,0.549 -1.585,0.081 -0.063,0.065 C 9.689,57.22 9.689,59.595 9.707,61.597 9.723,64.375 8.415,65.86 5.702,65.86 3.037,65.859 1.632,64.488 1.632,61.823" />
      <path
         style="fill:#231f20"
         inkscape:connector-curvature="0"
         id="path24_1_"
         d="m 12.758,65.149 1.584,-0.081 0.063,-0.063 c 0.049,-1.729 0.049,-3.006 0.049,-4.621 0,-1.613 0,-2.501 -0.049,-4.893 l -0.063,-0.063 -1.584,-0.081 0,-0.549 3.086,0 c 1.969,2.762 4.215,5.991 5.83,8.3 l 0.03,0 c -0.03,-3.1 -0.064,-6.022 -0.097,-7.606 l -0.064,-0.063 -1.484,-0.081 0,-0.549 4.278,0 0,0.549 -1.583,0.081 -0.064,0.063 c -0.049,1.729 -0.049,3.006 -0.049,7.059 l 0,3.229 -0.791,0 c -2.001,-2.843 -4.391,-6.185 -6.426,-9.093 l -0.032,0 c 0.015,3.779 0.063,6.703 0.097,8.318 l 0.063,0.063 1.487,0.081 0,0.549 -4.281,0 0,-0.549" />
      <path
         style="fill:#231f20"
         inkscape:connector-curvature="0"
         id="path26_1_"
         d="m 25.711,65.149 1.583,-0.081 0.063,-0.063 c 0.034,-0.502 0.049,-2.683 0.049,-4.862 0,-2.179 -0.015,-4.101 -0.049,-4.651 l -0.063,-0.063 -1.583,-0.081 0,-0.549 4.909,0 0,0.549 -1.566,0.081 -0.065,0.063 c -0.03,0.438 -0.049,2.683 -0.049,4.862 0,2.179 0.033,4.101 0.049,4.651 l 0.065,0.063 1.566,0.081 0,0.549 -4.909,0 0,-0.549" />
      <path
         style="fill:#231f20"
         inkscape:connector-curvature="0"
         id="path28_1_"
         d="m 32.721,55.396 -0.97,-0.048 0,-0.551 4.23,0 0,0.551 -1.437,0.064 -0.066,0.064 c 0.906,2.341 1.971,5.166 3.039,7.897 l 0.03,0 c 0.791,-2.197 2.164,-6.106 2.697,-7.913 l -0.049,-0.049 -1.309,-0.064 0,-0.551 3.571,0 0,0.551 -0.938,0.048 c -0.842,2.131 -2.778,7.154 -4.053,10.464 l -0.436,0 C 35.367,61.823 33.931,58.302 32.721,55.396" />
      <path
         style="fill:#231f20"
         inkscape:connector-curvature="0"
         id="path30_1_"
         d="m 43.589,65.149 1.583,-0.081 0.063,-0.063 c 0.017,-0.745 0.048,-2.683 0.048,-4.862 0,-2.179 -0.031,-4.004 -0.048,-4.651 l -0.063,-0.063 -1.583,-0.081 0,-0.549 7.09,0 0.63,-0.274 0.24,0 0.115,3.535 -0.325,0 c -0.581,-1.631 -1.097,-2.437 -1.372,-2.455 l -3.053,-0.161 -0.048,0.082 c -0.016,0.743 -0.047,2.455 -0.047,4.264 0.726,0 2.31,-0.049 2.729,-0.081 l 0.063,-0.063 0.581,-1.132 0.306,0 c -0.015,0.453 -0.03,1.146 -0.03,1.583 0,0.42 0.016,1.324 0.03,1.808 l -0.306,0 -0.581,-1.339 -0.063,-0.065 c -0.502,-0.015 -1.938,-0.049 -2.729,-0.049 0,2.053 0.031,3.698 0.047,4.521 l 0.048,0.083 3.296,-0.18 c 0.274,-0.015 1.001,-0.679 1.583,-2.583 l 0.37,0 c -0.21,3.148 -0.258,3.407 -0.531,3.407 l -8.043,0 0,-0.551" />
      <path
         style="fill:#231f20"
         inkscape:connector-curvature="0"
         id="path32_1_"
         d="m 60.95,57.608 c 0,-0.888 -0.388,-1.551 -1.116,-1.891 -0.402,-0.193 -0.902,-0.306 -1.921,-0.306 l -0.531,0 -0.05,0.048 c -0.015,0.694 -0.031,2.81 -0.049,4.699 2.811,-0.08 3.667,-0.983 3.667,-2.55 m -6.929,7.54 1.616,-0.079 0.064,-0.064 c 0.015,-0.469 0.049,-2.683 0.049,-4.862 0,-2.179 -0.034,-3.922 -0.049,-4.649 l -0.064,-0.065 -1.616,-0.081 0,-0.549 c 1.453,0 3.004,-0.031 3.828,-0.031 1.274,0 2.02,0.08 2.615,0.258 1.55,0.469 2.229,1.47 2.229,2.566 0,1.6 -1.082,2.358 -2.404,2.778 l 0,0.032 c 0.42,0.484 1.146,1.809 2.082,3.457 0.404,0.709 0.791,1.242 1.323,1.274 l 0.354,0.016 0,0.551 -2.42,0 -0.066,-0.064 c -0.597,-1.211 -1.017,-2.196 -2.035,-4.006 -0.209,-0.371 -0.403,-0.677 -0.645,-0.952 -0.58,0.081 -1.131,0.112 -1.6,0.112 -0.015,1.922 0.034,3.729 0.049,4.216 l 0.064,0.064 1.486,0.079 0,0.551 -4.861,0 0,-0.552" />
      <path
         style="fill:#231f20"
         inkscape:connector-curvature="0"
         id="path34_1_"
         d="m 66.07,62.29 0.371,0 c 0.566,2.052 1.484,2.907 2.617,2.907 1.322,0 2.16,-0.889 2.16,-2.05 0,-2.81 -4.957,-2.1 -4.957,-5.652 0,-1.502 1.182,-2.875 3.23,-2.875 1.051,0 1.891,0.323 2.068,0.371 l 0.482,-0.469 0.307,0 0.1,3.536 -0.342,0 c -0.678,-1.969 -1.564,-2.775 -2.664,-2.775 -0.951,0 -1.775,0.63 -1.775,1.694 0,2.697 5.037,2.276 5.037,5.686 0,1.631 -1.227,3.196 -3.744,3.196 -0.695,0 -1.518,-0.16 -2.23,-0.629 l -0.322,0.629 -0.338,0 0,-3.569" />
      <path
         style="fill:#231f20"
         inkscape:connector-curvature="0"
         id="path36_1_"
         d="m 74.807,65.149 1.584,-0.081 0.063,-0.063 c 0.033,-0.502 0.049,-2.683 0.049,-4.862 0,-2.179 -0.016,-4.101 -0.049,-4.651 l -0.063,-0.063 -1.584,-0.081 0,-0.549 4.91,0 0,0.549 -1.566,0.081 -0.066,0.063 c -0.031,0.438 -0.047,2.683 -0.047,4.862 0,2.179 0.031,4.101 0.047,4.651 l 0.066,0.063 1.566,0.081 0,0.549 -4.91,0 0,-0.549" />
      <path
         style="fill:#231f20"
         inkscape:connector-curvature="0"
         id="path38_1_"
         d="m 83.318,65.149 1.729,-0.081 0.063,-0.063 c 0.016,-0.599 0.049,-2.683 0.049,-4.862 0,-2.179 0,-3.973 -0.049,-4.539 l -0.047,-0.079 -1.924,0 c -0.338,0 -0.74,0.582 -1.404,2.534 l -0.322,0 0.129,-3.535 0.291,0 0.469,0.274 7.248,0 0.469,-0.274 0.293,0 0.127,3.535 -0.322,0 c -0.676,-1.968 -1.064,-2.534 -1.404,-2.534 l -1.922,0 -0.049,0.079 c -0.016,0.39 -0.049,2.57 -0.049,4.75 0,2.179 0.033,4.07 0.049,4.651 l 0.064,0.063 1.777,0.081 0,0.549 -5.264,0 0,-0.549" />
      <path
         style="fill:#231f20"
         inkscape:connector-curvature="0"
         id="path40_1_"
         d="m 94.799,65.149 1.6,-0.081 0.064,-0.063 c 0.033,-1.214 0.049,-1.956 0.049,-4.167 -1.34,-2.034 -2.811,-4.376 -3.537,-5.442 l -1.082,-0.049 0,-0.549 4.119,0 0,0.549 -1.164,0.065 -0.064,0.064 c 0.791,1.323 1.906,3.182 2.762,4.505 l 0.033,0 c 0.889,-1.566 1.922,-3.472 2.439,-4.521 l -0.049,-0.049 -1.133,-0.065 0,-0.549 3.49,0 0,0.549 -0.986,0.049 c -0.938,1.373 -2.162,3.536 -3.293,5.394 0,2.229 0.031,2.762 0.047,4.216 l 0.066,0.063 1.646,0.081 0,0.549 -5.008,0 0,-0.549" />
      <path
         style="fill:#231f20"
         inkscape:connector-curvature="0"
         id="path42_1_"
         d="m 115.842,60.239 c 0,-3.261 -1.275,-4.892 -3.326,-4.892 -2.051,0 -3.359,1.631 -3.359,4.892 0,3.263 1.277,4.894 3.326,4.894 2.05,0 3.359,-1.631 3.359,-4.894 m -8.428,0.163 c 0,-3.667 2.244,-5.781 5.102,-5.781 3.213,0 5.07,2.261 5.07,5.457 0,3.667 -2.244,5.781 -5.104,5.781 -3.212,0 -5.068,-2.259 -5.068,-5.457" />
      <path
         style="fill:#231f20"
         inkscape:connector-curvature="0"
         id="path44_1_"
         d="m 119.445,65.149 1.582,-0.096 0.064,-0.066 c 0.016,-0.563 0.049,-2.665 0.049,-4.845 0,-2.179 -0.033,-4.085 -0.049,-4.651 l -0.064,-0.063 -1.582,-0.081 0,-0.549 7.121,0 0.629,-0.274 0.242,0 0.113,3.535 -0.322,0 c -0.582,-1.631 -1.1,-2.455 -1.371,-2.468 l -3.086,-0.148 -0.049,0.082 c -0.016,0.469 -0.049,2.455 -0.049,4.264 0.727,0 2.309,-0.049 2.697,-0.081 l 0.066,-0.063 0.58,-1.132 0.307,0 c -0.016,0.453 -0.033,1.146 -0.033,1.583 0,0.42 0.018,1.437 0.033,1.92 l -0.307,0 -0.615,-1.451 -0.064,-0.065 c -0.469,-0.015 -1.873,-0.049 -2.664,-0.049 0,2.053 0,3.877 0.049,4.538 l 0.064,0.066 1.744,0.096 0,0.549 -5.086,0 0,-0.551" />
      <path
         style="fill:#231f20"
         inkscape:connector-curvature="0"
         id="path46_1_"
         d="m 5.267,79.621 c 0,-3.537 2.388,-5.62 5.538,-5.62 1.195,0 1.889,0.194 2.504,0.371 l 0.53,-0.469 0.243,0 0.112,3.538 -0.339,0 c -0.806,-2.165 -1.953,-2.78 -3.147,-2.78 -1.875,0 -3.698,1.406 -3.698,4.799 0,2.647 1.323,5.054 4.068,5.054 0.791,0 1.647,-0.226 1.647,-0.484 0,-0.548 0.015,-2.018 -0.032,-3.263 l -0.063,-0.065 -1.585,-0.079 0,-0.551 4.521,0 0,0.551 -1.162,0.079 -0.063,0.065 c -0.033,1.035 -0.049,2.197 -0.033,3.442 -0.193,0.401 -1.743,1.032 -3.375,1.032 -3.295,0 -5.666,-2.052 -5.666,-5.62" />
      <path
         style="fill:#231f20"
         inkscape:connector-curvature="0"
         id="path48_1_"
         d="m 26.019,79.621 c 0,-3.262 -1.277,-4.893 -3.328,-4.893 -2.052,0 -3.359,1.631 -3.359,4.893 0,3.261 1.277,4.893 3.326,4.893 2.05,0 3.361,-1.632 3.361,-4.893 m -8.431,0.161 c 0,-3.666 2.245,-5.781 5.103,-5.781 3.213,0 5.071,2.26 5.071,5.459 0,3.665 -2.245,5.781 -5.104,5.781 -3.215,0 -5.07,-2.262 -5.07,-5.459" />
      <path
         style="fill:#231f20"
         inkscape:connector-curvature="0"
         id="path50_1_"
         d="m 31.849,84.529 1.727,-0.079 0.066,-0.065 c 0.015,-0.6 0.048,-2.683 0.048,-4.862 0,-2.181 0,-3.973 -0.048,-4.536 l -0.049,-0.079 -1.924,0 c -0.337,0 -0.741,0.581 -1.404,2.532 l -0.322,0 0.129,-3.537 0.29,0 0.469,0.277 7.25,0 0.469,-0.277 0.292,0 0.128,3.537 -0.322,0 C 37.97,75.471 37.583,74.908 37.243,74.908 l -1.923,0 -0.047,0.079 c -0.017,0.387 -0.049,2.567 -0.049,4.746 0,2.18 0.032,4.071 0.049,4.652 l 0.064,0.065 1.777,0.079 0,0.551 -5.265,0 0,-0.551" />
      <path
         style="fill:#231f20"
         inkscape:connector-curvature="0"
         id="path52_1_"
         d="m 40.667,84.529 1.582,-0.079 0.063,-0.065 c 0.016,-0.613 0.05,-2.683 0.05,-4.862 0,-2.181 -0.034,-4.149 -0.05,-4.651 l -0.063,-0.062 -1.582,-0.082 0,-0.548 4.681,0 0,0.548 -1.339,0.082 -0.065,0.062 c -0.031,0.502 -0.047,2.407 -0.047,4.218 l 5.343,0 c 0.017,-2.002 -0.032,-3.847 -0.049,-4.218 l -0.063,-0.062 -1.34,-0.082 0,-0.548 4.683,0 0,0.548 -1.582,0.082 -0.064,0.062 c -0.018,0.486 -0.048,2.683 -0.048,4.861 0,2.18 0.03,3.941 0.048,4.652 l 0.064,0.065 1.582,0.079 0,0.551 -4.683,0 0,-0.551 1.34,-0.079 0.063,-0.065 c 0.017,-0.551 0.049,-2.552 0.049,-4.457 l -5.343,0 c 0,2.052 0.016,3.535 0.047,4.457 l 0.065,0.065 1.339,0.079 0,0.551 -4.681,0 0,-0.551" />
      <path
         style="fill:#231f20"
         inkscape:connector-curvature="0"
         id="path54_1_"
         d="m 53.843,84.529 1.585,-0.079 0.063,-0.065 c 0.016,-0.744 0.048,-2.683 0.048,-4.862 0,-2.181 -0.032,-4.004 -0.048,-4.651 l -0.063,-0.062 -1.585,-0.082 0,-0.548 7.091,0 0.631,-0.277 0.24,0 0.112,3.537 -0.322,0 c -0.581,-1.631 -1.098,-2.438 -1.371,-2.453 l -3.054,-0.161 -0.048,0.082 c -0.017,0.742 -0.049,2.453 -0.049,4.263 0.728,0 2.311,-0.049 2.73,-0.081 l 0.063,-0.065 0.581,-1.131 0.307,0 c -0.015,0.452 -0.03,1.147 -0.03,1.583 0,0.418 0.016,1.325 0.03,1.807 l -0.307,0 -0.581,-1.34 -0.063,-0.063 c -0.501,-0.016 -1.938,-0.049 -2.73,-0.049 0,2.052 0.032,3.698 0.049,4.522 l 0.048,0.081 3.295,-0.18 c 0.275,-0.014 1.002,-0.679 1.582,-2.582 l 0.371,0 c -0.209,3.149 -0.258,3.408 -0.531,3.408 l -8.044,0 0,-0.552" />
      <path
         style="fill:#231f20"
         inkscape:connector-curvature="0"
         id="path56_1_"
         d="m 64.277,84.529 1.582,-0.079 0.064,-0.065 c 0.049,-1.727 0.049,-3.005 0.049,-4.621 0,-1.612 0,-2.501 -0.049,-4.893 l -0.064,-0.062 -1.582,-0.082 0,-0.547 3.084,0 c 1.971,2.761 4.215,5.991 5.83,8.299 l 0.031,0 C 73.191,79.38 73.158,76.457 73.124,74.872 l -0.063,-0.062 -1.486,-0.082 0,-0.548 4.279,0 0,0.548 -1.584,0.082 -0.064,0.062 c -0.049,1.729 -0.049,3.007 -0.049,7.06 l 0,3.23 -0.791,0 C 71.364,82.317 68.975,78.975 66.94,76.07 l -0.033,0 c 0.016,3.779 0.064,6.701 0.098,8.315 l 0.063,0.065 1.488,0.079 0,0.551 -4.279,0 0,-0.551" />
      <path
         style="fill:#231f20"
         inkscape:connector-curvature="0"
         id="path58_1_"
         d="m 84.625,81.979 c 0,-1.537 -1.051,-2.131 -2.471,-2.131 l -1.695,0 c -0.018,2.051 0.031,3.68 0.047,4.536 l 0.082,0.065 c 0.307,0.014 0.598,0.014 0.791,0.014 2.182,0.001 3.246,-0.901 3.246,-2.484 m -3.148,-2.843 c 1.904,0 2.391,-0.903 2.391,-2.146 0,-0.858 -0.307,-1.501 -0.971,-1.842 -0.42,-0.228 -1.016,-0.355 -1.904,-0.355 -0.082,0 -0.258,0 -0.42,0.018 l -0.066,0.079 c -0.016,0.841 -0.064,2.423 -0.047,4.247 l 1.017,0 z m -4.248,5.395 1.584,-0.081 0.063,-0.065 c 0.018,-0.564 0.049,-2.683 0.049,-4.862 0,-2.179 -0.031,-3.939 -0.049,-4.651 l -0.063,-0.062 -1.584,-0.082 0,-0.548 c 1.195,0 2.568,-0.033 3.52,-0.033 1.182,0 2.084,0.097 2.813,0.322 1.275,0.402 2.049,1.229 2.049,2.408 0,1.386 -0.92,2.211 -1.969,2.469 l 0,0.034 c 1.711,0.079 2.729,1.08 2.729,2.389 0,2.196 -1.971,3.344 -5.102,3.344 -1.051,0 -2.746,-0.033 -4.039,-0.033 l 0,-0.549" />
      <path
         style="fill:#231f20"
         inkscape:connector-curvature="0"
         id="path60_1_"
         d="m 89.859,81.203 c 0,-0.612 0.016,-0.983 0.016,-2.583 0,-1.278 -0.016,-2.292 -0.033,-3.747 l -0.064,-0.063 -1.551,-0.082 0,-0.548 4.621,0 0,0.548 -1.309,0.082 -0.066,0.063 c -0.016,1.209 -0.031,3.826 -0.031,6.266 0,2.033 0.469,3.407 2.615,3.407 2.244,0 2.893,-1.307 2.893,-3.715 0,-2.1 -0.033,-4.375 -0.066,-5.958 l -0.064,-0.063 -1.484,-0.082 0,-0.548 4.277,0 0,0.548 -1.582,0.082 -0.064,0.063 c -0.049,1.727 -0.049,4.102 -0.031,6.104 0.016,2.777 -1.293,4.263 -4.006,4.263 -2.668,0 -4.071,-1.373 -4.071,-4.037" />
      <path
         style="fill:#231f20"
         inkscape:connector-curvature="0"
         id="path62_1_"
         d="m 107.914,76.988 c 0,-0.889 -0.389,-1.549 -1.115,-1.89 -0.404,-0.191 -0.904,-0.308 -1.922,-0.308 l -0.533,0 -0.049,0.049 c -0.016,0.697 -0.031,2.81 -0.049,4.699 2.811,-0.078 3.668,-0.983 3.668,-2.55 m -6.93,7.541 1.617,-0.079 0.063,-0.067 c 0.018,-0.469 0.049,-2.679 0.049,-4.86 0,-2.181 -0.031,-3.922 -0.049,-4.649 l -0.063,-0.063 -1.617,-0.082 0,-0.549 c 1.453,0 3.004,-0.032 3.828,-0.032 1.277,0 2.02,0.079 2.615,0.257 1.551,0.469 2.23,1.47 2.23,2.566 0,1.601 -1.084,2.358 -2.406,2.78 l 0,0.03 c 0.42,0.485 1.145,1.811 2.082,3.457 0.404,0.708 0.791,1.242 1.324,1.275 l 0.355,0.016 0,0.551 -2.422,0 -0.066,-0.065 c -0.596,-1.213 -1.016,-2.196 -2.035,-4.004 -0.209,-0.371 -0.4,-0.679 -0.645,-0.954 -0.58,0.082 -1.131,0.114 -1.6,0.114 -0.014,1.92 0.033,3.729 0.049,4.212 l 0.064,0.067 1.486,0.079 0,0.551 -4.861,0 0,-0.551" />
      <path
         style="fill:#231f20"
         inkscape:connector-curvature="0"
         id="path64_1_"
         d="m 112.629,79.621 c 0,-3.537 2.389,-5.62 5.541,-5.62 1.195,0 1.887,0.194 2.5,0.371 l 0.533,-0.469 0.242,0 0.113,3.538 -0.34,0 c -0.805,-2.165 -1.951,-2.78 -3.146,-2.78 -1.875,0 -3.699,1.406 -3.699,4.799 0,2.647 1.324,5.054 4.068,5.054 0.791,0 1.648,-0.226 1.648,-0.484 0,-0.548 0.016,-2.018 -0.033,-3.263 l -0.064,-0.065 -1.582,-0.079 0,-0.551 4.52,0 0,0.551 -1.16,0.079 -0.064,0.065 c -0.033,1.035 -0.049,2.197 -0.033,3.442 -0.193,0.401 -1.744,1.032 -3.375,1.032 -3.296,0 -5.669,-2.052 -5.669,-5.62" />
    </g>
  </g>
</svg>
